<svg xmlns="http://www.w3.org/2000/svg" version="1.1" x="0" y="0" viewBox="0 0 115.2 115.2" xml:space="preserve"><style type="text/css">
	.st0{fill:#4C5264;}
</style><path class="st0" d="M33.4 52.7c-0.7-0.3-1.3-0.4-1.9-0.4 -0.8 0-1.5 0.2-2 0.7 -0.6 0.4-1 1-1.2 1.8v14.6h-5.2V47.6h4l0.6 2.6h0.2c0.4-1 0.9-1.7 1.6-2.2 0.7-0.5 1.5-0.8 2.5-0.8 0.7 0 1.4 0.1 2.1 0.4L33.4 52.7zM50.7 67.8c-0.7 0.6-1.7 1.2-3 1.6 -1.3 0.4-2.6 0.6-3.9 0.6 -1.5 0-2.8-0.3-3.9-0.8s-2-1.3-2.7-2.3c-0.7-1-1.2-2.2-1.5-3.6 -0.3-1.4-0.5-3-0.5-4.8 0-3.9 0.8-6.8 2.3-8.7 1.6-1.9 3.7-2.8 6.5-2.8 0.9 0 1.8 0.1 2.7 0.4 0.9 0.3 1.7 0.7 2.3 1.4 0.7 0.7 1.2 1.5 1.7 2.6 0.4 1.1 0.6 2.5 0.6 4.1 0 0.6 0 1.3-0.1 2 -0.1 0.7-0.2 1.5-0.3 2.4H40.2c0.1 1.8 0.4 3.2 1.1 4.1 0.7 1 1.8 1.4 3.4 1.4 0.9 0 1.8-0.1 2.6-0.4 0.8-0.3 1.4-0.6 1.8-0.9L50.7 67.8zM43.9 51.4c-1.1 0-1.9 0.4-2.5 1.3 -0.6 0.9-0.9 2.1-1 3.7h6c0.1-1.7-0.1-2.9-0.5-3.8C45.5 51.9 44.8 51.4 43.9 51.4zM61.9 63.6c0-0.6-0.2-1.1-0.6-1.5 -0.4-0.4-0.9-0.8-1.5-1.2 -0.6-0.4-1.3-0.7-1.9-1.1 -0.7-0.4-1.3-0.8-1.9-1.4 -0.6-0.6-1.1-1.2-1.5-2 -0.4-0.8-0.6-1.8-0.6-3 0-2 0.6-3.6 1.7-4.7 1.1-1.1 2.7-1.7 4.9-1.7 1.3 0 2.5 0.1 3.6 0.4 1.1 0.3 2 0.6 2.7 1l-1.2 4c-0.6-0.2-1.2-0.5-2-0.7 -0.8-0.2-1.6-0.3-2.3-0.3 -1.4 0-2.1 0.6-2.1 1.8 0 0.6 0.2 1 0.6 1.4 0.4 0.4 0.9 0.7 1.5 1.1 0.6 0.3 1.3 0.7 1.9 1.1 0.7 0.4 1.3 0.8 1.9 1.4 0.6 0.6 1.1 1.3 1.5 2.1 0.4 0.8 0.6 1.8 0.6 3 0 2-0.6 3.6-1.8 4.8 -1.2 1.2-3 1.8-5.5 1.8 -1.2 0-2.4-0.1-3.5-0.4 -1.1-0.3-2.1-0.7-2.8-1.1l1.4-4.2c0.6 0.3 1.3 0.7 2.1 0.9 0.8 0.3 1.6 0.4 2.5 0.4 0.7 0 1.2-0.2 1.7-0.5C61.7 64.7 61.9 64.3 61.9 63.6zM68.2 47.6h2.4v-4.1l5.2-1.6v5.7H80v4.6h-4.2v9.5c0 1.2 0.1 2.1 0.4 2.7s0.7 0.8 1.3 0.8c0.4 0 0.8 0 1.2-0.1 0.3-0.1 0.7-0.2 1.1-0.4l0.7 4.1c-0.6 0.3-1.4 0.6-2.2 0.8 -0.8 0.2-1.7 0.3-2.7 0.3 -1.7 0-2.9-0.5-3.7-1.4 -0.8-1-1.2-2.6-1.2-4.8V52.2h-2.4V47.6zM95.3 68.3c-0.7 0.6-1.6 1-2.5 1.2 -0.9 0.3-1.9 0.4-2.9 0.4 -1.4 0-2.6-0.3-3.5-0.8s-1.7-1.3-2.3-2.3c-0.6-1-1-2.2-1.3-3.6 -0.3-1.4-0.4-3-0.4-4.7 0-3.7 0.7-6.5 2-8.5 1.3-1.9 3.2-2.9 5.7-2.9 1.1 0 2.1 0.1 2.9 0.3 0.8 0.2 1.5 0.5 2.1 0.8l-0.9 2.7c-1.2-0.7-2.4-1-3.8-1 -1.6 0-2.8 0.7-3.6 2.1 -0.8 1.4-1.2 3.6-1.2 6.5 0 1.2 0.1 2.3 0.3 3.4 0.2 1 0.5 2 0.9 2.7 0.4 0.8 0.9 1.4 1.6 1.8 0.6 0.5 1.4 0.7 2.4 0.7 0.8 0 1.5-0.1 2.1-0.4 0.7-0.3 1.2-0.6 1.6-0.9L95.3 68.3z"/><path class="st0" d="M6.7 62.8c0-1.5-0.2-2.5-0.7-3S4.8 59 3.9 59v-2.8c0.9 0 1.6-0.3 2.1-0.9 0.5-0.6 0.7-1.5 0.7-2.8V41.7c0-1.4 0.3-2.4 0.8-3.2 0.5-0.8 1.4-1.2 2.6-1.2h3.2v2.8h-1.7c-0.7 0-1.1 0.2-1.4 0.5 -0.3 0.4-0.4 1-0.4 1.9v10.6c0 1.3-0.2 2.3-0.7 2.9S8 57.2 7.4 57.3v0.3c0.7 0.1 1.2 0.6 1.7 1.3 0.5 0.8 0.7 1.8 0.7 3v10.6c0 0.9 0.1 1.5 0.4 1.9 0.3 0.4 0.8 0.6 1.5 0.6h1.7v2.8h-3.2c-2.3 0-3.4-1.5-3.4-4.4V62.8z"/><path class="st0" d="M108.7 73.4c0 2.9-1.1 4.4-3.4 4.4H102V75h1.7c0.7 0 1.2-0.2 1.5-0.6 0.3-0.4 0.4-1 0.4-1.9V61.9c0-1.2 0.2-2.2 0.7-3 0.5-0.8 1.1-1.2 1.7-1.3v-0.3c-0.7-0.1-1.2-0.6-1.7-1.2s-0.7-1.6-0.7-2.9V42.6c0-0.9-0.1-1.6-0.4-1.9 -0.3-0.4-0.7-0.5-1.4-0.5H102v-2.8h3.2c1.2 0 2.1 0.4 2.6 1.2s0.8 1.9 0.8 3.2v10.8c0 1.3 0.2 2.2 0.7 2.8 0.5 0.6 1.2 0.9 2.1 0.9V59c-0.9 0-1.6 0.3-2.1 0.8 -0.5 0.6-0.7 1.6-0.7 3V73.4z"/></svg>
